<?xml version="1.0" encoding="utf-8"?>
<!-- Generator: Adobe Illustrator 27.0.0, SVG Export Plug-In . SVG Version: 6.00 Build 0)  -->
<svg version="1.1" xmlns="http://www.w3.org/2000/svg" xmlns:xlink="http://www.w3.org/1999/xlink" x="0px" y="0px"
	 viewBox="0 0 1407.85 841.89" style="enable-background:new 0 0 1407.85 841.89;" xml:space="preserve">
<style type="text/css">
	.st0{display:none;}
	.st1{display:inline;opacity:0.65;}
</style>
<g id="Camada_1" class="st0">
	<g class="st1">
		<path d="M111.37,316.53c-1.27,0.21-3.6-1.27-4.87-3.18c-1.48-2.12-1.48-3.81-0.21-4.24c42.58-8.05,98.07-11.23,156.75-12.92
			c5.08-7.84,8.05-12.29,8.05-12.5c0.64-1.06,2.54-0.42,4.45,1.27c1.69,1.91,2.75,4.02,2.12,5.08l-3.81,5.72
			c16.1-0.42,32.41-0.64,48.51-1.06c39.82-0.85,79.86-1.91,116.71-3.81c1.48-0.21,3.6,1.48,4.87,3.6c1.06,1.7,1.06,3.39,0,3.6
			l-17.37,7.63c-1.27,0.42-3.39-0.64-4.87-2.54c-1.06-1.48-1.69-2.97-1.27-3.81c-30.29,1.27-61.85,1.91-93.63,2.75
			c-19.28,0.42-38.76,0.85-57.83,1.27c-27.33,42.58-109.94,171.58-108.67,173.06c0.42,0.42,10.17-10.59,10.17-10.59
			c0.85-0.85,2.97-0.21,4.66,1.7c1.69,1.69,2.54,4.02,1.69,4.87c0,0-13.13,14.83-20.34,6.35c-4.87-5.93,70.96-126.46,101.68-174.97
			C203.09,305.51,151.19,308.69,111.37,316.53z"/>
		<path d="M274.78,379.51c1.03-0.78,3.62,0.26,5.68,2.58c2.07,2.33,2.58,4.91,1.55,5.94c-0.78,0.52-1.55,1.03-2.07,1.55
			c-5.43,4.91-9.82,12.92-12.66,20.93c-2.07,6.72-3.1,12.92-1.81,15.5c1.29,0.52,2.84,0.52,4.91,0c2.33-0.77,5.17-2.33,7.75-4.91
			c3.62-3.1,6.98-7.75,10.08-13.69c1.81-3.36,3.1-6.98,4.13-10.59c-4.65-3.88-8.01-8.53-10.08-13.18c-2.07-4.65-2.84-9.3-2.58-12.66
			c0.52-3.62,2.07-6.2,5.17-6.72c2.33-0.26,4.39,0.26,6.46,1.29c3.36,1.81,6.2,4.91,8.01,8.78c1.55,2.84,2.33,5.94,2.84,9.3
			c0.52,3.36,0.52,7.23,0,11.11c5.68,1.03,14.21,2.07,23.25-3.1c1.29-0.78,2.58-1.81,4.65,0.52c1.81,2.33,1.55,4.13,0.26,4.91
			c-12.14,6.72-21.19,7.75-29.2,4.91c-1.03,4.39-2.58,9.04-4.91,12.92c-3.1,5.94-6.72,11.11-10.59,14.47
			c-3.1,2.58-5.94,4.65-8.79,5.43c-3.36,1.03-6.72,0.78-10.08-1.03c-1.81-1.03-3.62-2.33-5.17-4.13c-0.52-0.52-1.03-1.03-1.55-1.55
			c-4.13-5.94-3.88-15.5-1.03-24.55c2.84-8.53,7.75-17.05,13.44-22.22C273.23,380.8,274,380.03,274.78,379.51z M293.64,390.62
			c0.52-4.13,0.52-8.27,0-11.63c-0.26-2.33-0.78-4.39-1.29-5.68c-0.26,0,0.26,0,0.26,0c-0.26-0.26-1.03-0.26-1.81,0
			c-1.55,0-2.33,1.55-2.58,3.88c-0.26,2.33,0.26,5.17,1.55,8.01C290.54,387.26,291.83,389.07,293.64,390.62z"/>
		<path d="M333.95,370.98c0.52-1.29,3.1-0.52,5.17,1.55c2.33,2.07,3.62,4.65,2.84,6.2l-4.65,8.01c8.01-7.75,15.76-14.21,20.67-16.02
			c16.02-5.43,13.44,12.14,8.27,27.9c0.78-0.52,1.81-1.03,2.58-1.29c2.33-1.03,4.39-1.81,6.2-1.81c4.13-0.26,7.49,1.81,9.82,6.72
			c1.29,2.84,1.29,7.23-0.77,13.18c-0.26,0.52,27.65-22.48,27.9-22.48c1.03-1.03,3.36-3.88,5.43-1.55c2.33,2.07,2.07,3.62,1.03,4.65
			c-0.26,0.26-62.01,65.37-42.63,12.14c0.26-1.03,0.52-1.81,0.77-2.84l-1.03,0.52c-6.98,3.62-16.02,11.11-17.83,14.21v0.26
			c-0.78,1.55-3.1,1.03-5.43-1.03c-2.33-2.07-3.36-4.91-2.84-6.2c0-0.26,15.76-33.85,14.99-33.59
			c-13.95,4.91-51.16,50.38-51.42,50.64c-0.78,1.03-3.1,0.26-5.17-1.55c-2.07-2.07-3.36-4.91-2.58-6.2L333.95,370.98z"/>
		<path d="M455.9,387.78c1.03,2.58,0.26,4.13-1.81,3.62c-2.07-0.52-4.65-2.84-5.68-5.17c-5.17-4.91-17.83,1.03-22.48,4.91
			c-9.56,7.75-14.99,17.05-17.83,28.94c9.04-2.58,32.56-29.97,32.56-29.97c1.03-1.03,3.36-0.26,5.68,2.07
			c1.81,2.07,2.84,4.39,2.07,5.68c-0.52,1.29-3.62,8.01-2.07,15.24c1.03,6.2,34.62-21.96,35.14-22.22c1.03-1.03,3.1-2.33,5.17-0.26
			c2.07,2.33,1.81,4.39,0.77,5.43c-17.05,15.24-27.13,24.29-34.11,27.9c-11.88,6.2-20.93,2.58-20.67-10.08
			c-9.3,8.78-18.86,16.79-24.55,14.21c-2.07-0.77-3.62-2.33-5.17-3.88c-2.58-3.36-3.62-6.98-3.1-10.85c0.26-3.1,1.29-6.46,2.84-9.82
			c3.36-7.23,9.3-15.24,16.02-20.67C430.32,373.31,451.51,372.79,455.9,387.78z M441.95,360.91c0.52-0.52,1.03-1.29,1.55-2.07
			c2.07-3.1,3.87-6.72,3.87-8.53c0.26-1.03,1.55-2.58,3.1-3.36c1.29-1.03,5.17,1.81,4.91,3.1c-0.26,3.62-9.82,18.09-17.05,16.02
			c-0.26-0.26-0.52-0.26-0.77-0.52c-0.52-0.52,0-2.07,1.29-3.36C439.88,361.16,441.17,360.65,441.95,360.91z"/>
		<path d="M481.22,400.95c-1.03,1.03-4.13,2.58-6.2,0.52c-2.07-2.33,3.36-6.98,4.39-8.01l19.38-23.51c3.36-3.62,5.94-5.68,5.94-5.68
			c1.03-1.03,3.62,0,5.43,2.33c2.07,2.07,3.1,4.91,2.07,5.94l-6.2,5.94c-5.43,6.2-12.66,17.31-9.82,29.2
			c1.55,7.49,0.78,13.44-1.29,17.83c-1.29,2.33-3.1,4.13-4.91,5.68c-1.81,1.29-3.88,2.33-5.94,2.84c-3.62,0.78-7.24,0.26-10.08-1.29
			c-14.73-7.49-6.72-21.96-6.72-22.22c0.78-1.29,3.1-0.78,5.43,1.29c2.33,2.07,3.36,4.91,2.84,6.2c0,0.26-3.62,6.72-3.1,6.98
			c1.03,0.52,3.1,0.52,5.17,0c1.81-0.26,3.62-1.03,5.17-2.33c1.55-1.03,3.1-2.84,3.88-4.65c1.81-3.62,2.58-8.27,1.29-14.21
			c0-3.36-2.33-3.62,3.88-14.99L481.22,400.95z"/>
		<path d="M849.02,299.37c1.69,0.42,3.81,2.33,4.66,4.45c0.85,1.91,0.21,3.18-1.48,2.97c-14.4-3.18-41.94-5.51-73.08-2.12
			c11.01,6.57,19.28,15.46,23.94,26.69c7.41,18.64,6.36,45.33-14.4,77.53c-25.63,39.82-73.29,62.28-110.36,66.51
			c-12.5,1.48-24.15,0.85-33.89-2.33c-10.8-3.39-19.7-9.74-25.42-19.06c-7.41-12.5-8.05-30.29,1.91-53.17
			c18.64-44.06,50.63-70.33,85.15-85.58c15.46-6.99,31.35-11.65,47.03-14.62c-9.11-2.12-19.06-3.18-29.44-3.6
			c-60.37-1.7-137.9,23.51-174.75,67.36c-0.85,0.85-2.96,0.21-4.66-1.69c-1.7-1.69-3.39-6.78-2.54-7.84
			c37.28-44.27,113.54-68.63,174.33-66.72c17.37,0.64,36.86,4.87,50.2,10.17C801.36,293.44,832.92,296.19,849.02,299.37z
			 M769.8,305.94c-18.85,2.75-38.98,7.84-58.25,16.31c-33.89,15.25-65.45,41.09-84.09,84.52c-9.11,21.39-9.11,36.86-2.96,47.03
			c3.39,5.72,9.53,9.74,17.37,12.29c8.9,2.75,19.91,3.39,31.77,2.12c36.43-4.45,80.71-27.75,105.91-66.94
			c20.12-31.35,23.94-54.86,17.16-71.6c-4.24-9.96-12.92-17.58-24.78-22.88C771.28,306.36,770.64,306.15,769.8,305.94z"/>
		<path d="M878.4,393.2c0.52-0.78,1.55-2.33,3.62-0.78c2.07,1.29,3.36,3.36,2.84,4.13c-6.46,11.11-58.65,53.23-73.64,60.72
			c-9.3,4.91-24.8,9.56-31.27-0.78c-15.24-21.45,84.23-163.3,86.56-163.81c8.27-11.89,19.12-19.9,27.13-22.22
			c2.84-0.78,5.68-1.03,8.27,0c4.39,1.29,7.49,4.13,8.78,8.27c1.03,3.88,0,10.08-4.65,18.86c-16.54,33.07-85.52,85.52-85.78,85.78
			c-0.26,0-0.52,0.26-1.03,0c-18.86,32.81-32.3,62.53-28.68,70.28c2.33,3.36,13.43-0.78,16.02-2.07
			C821.3,443.84,871.94,404.05,878.4,393.2z M873.75,298.12c0,0-20.93,30.49-41.86,64.59c21.44-17.83,55.81-48.32,66.92-70.28
			c3.88-7.75,5.17-13.18,4.39-16.54c-0.77,0-2.07,0.26-3.36,0.52C892.35,278.74,882.02,286.49,873.75,298.12z"/>
		<path d="M894.16,372.02c1.29-1.03,3.88,0,5.94,2.33c2.07,2.33,2.84,4.91,1.55,5.94c-5.68,4.91-14.99,16.02-20.67,26.87
			c-3.62,7.23-3.36,11.37-0.78,12.66c10.59,1.55,39.27-26.35,39.27-26.61c1.03-1.03,2.84-3.1,4.91-0.78
			c2.33,2.33,1.29,3.1,0.26,4.13c-0.26,0-43.15,46.51-54.26,27.13c-3.62-6.46-1.81-15.24,2.58-24.03
			C878.66,388.55,888.22,376.92,894.16,372.02z M910.18,364.52c-1.03,1.29-3.62,0.26-5.68-1.81c-2.07-2.33-3.1-4.91-2.07-6.2
			l14.47-16.54c1.03-1.29,3.36-0.26,5.68,1.81c2.07,2.33,2.84,4.91,2.07,6.2L910.18,364.52z"/>
		<path d="M918.45,395.53l-0.52-0.52c-2.07-2.33-2.58-4.91-1.55-5.68l13.69-13.44c1.03-1.03,5.68,1.29,7.75,3.62
			c1.81,2.07,2.58,4.39,1.81,5.43c-0.26,0.26-17.57,24.29-22.74,36.95c-1.55,3.62,2.07,2.58,4.65,0
			c11.88-8.53,28.94-26.87,43.67-46.51l1.55-2.33c1.03-1.29,2.33-1.29,4.39,1.03c2.33,2.07,4.91,6.72,3.88,7.75
			c0,0.26-10.34,13.44-10.34,18.86c0,0.26,8.53-1.03,16.8-7.75c1.03-0.77,4.13-3.88,6.2-1.55s2.07,3.88,1.03,4.91
			c0,0-24.8,21.7-32.56,5.68l-0.26-0.52c-9.56,10.34-18.86,18.86-26.35,24.03c-3.88,2.84-7.24,4.91-9.82,5.94
			c-4.13,1.29-8.01,0.52-11.11-3.1c-1.29-1.55-2.07-3.1-2.33-4.91C905.01,417.75,911.73,405.86,918.45,395.53z"/>
		<path d="M1011.98,394.75c-12.14,6.2-25.84,7.75-26.61,7.75c-17.57,37.72,52.19,5.68,60.2-8.79c0.77-1.55,3.36-3.36,5.68-1.29
			c2.07,2.07,2.07,3.1,1.29,4.65c-7.23,12.66-47.54,40.57-65.37,30.49c-8.79-4.91-14.21-15.24-12.14-25.32
			c1.29-6.46,5.17-13.18,10.34-19.12c5.17-5.68,11.11-11.11,16.79-15.24c7.49-5.17,14.47-8.27,17.31-7.75
			c2.33,0.52,4.39,1.81,6.2,3.88c2.58,2.84,3.62,6.2,3.1,9.3c-0.26,2.33-1.29,4.65-2.58,7.23
			C1023.35,385.97,1018.18,391.65,1011.98,394.75z M993.64,390.62c3.62-1.03,7.49-2.58,11.63-4.39c5.43-2.84,10.08-8.27,12.92-13.18
			c0.52-1.03,0.78-1.81,1.29-2.84c-2.84,1.29-6.2,3.36-10.08,6.2C1004.23,380.28,998.29,385.19,993.64,390.62z"/>
		<path d="M1062.88,372.02c1.29-1.03,3.88,0,5.94,2.33c2.07,2.33,2.84,4.91,1.55,5.94c-5.68,4.91-14.99,16.02-20.67,26.87
			c-3.62,7.23-3.36,11.37-0.78,12.66c10.59,1.55,39.27-26.35,39.27-26.61c1.03-1.03,2.84-3.1,4.91-0.78
			c2.33,2.33,1.29,3.1,0.26,4.13c-0.26,0-43.15,46.51-54.26,27.13c-3.62-6.46-1.81-15.24,2.58-24.03
			C1047.38,388.55,1056.94,376.92,1062.88,372.02z M1078.9,364.52c-1.03,1.29-3.62,0.26-5.68-1.81c-2.07-2.33-3.1-4.91-2.07-6.2
			l14.47-16.54c1.03-1.29,3.36-0.26,5.68,1.81c2.07,2.33,2.84,4.91,2.07,6.2L1078.9,364.52z"/>
		<path d="M1104.48,364.78c0.77-1.29,3.36-0.52,5.43,1.55c2.33,2.07,3.36,4.91,2.58,6.2l-9.56,15.24
			c9.04-4.39,21.44-8.53,26.61-2.07c2.33,2.58,1.55,8.53,4.91,8.78c4.91,0.26,12.14-0.78,19.12-2.84c1.55-0.52,3.1-1.81,4.65,0.52
			c1.81,2.58,0.77,3.36-0.78,3.62c-7.49,2.33-19.89,4.91-25.32,4.39c-6.72-0.52-8.78-2.33-14.47-9.04
			c-3.88-4.65-26.87,15.76-26.87,15.76c-0.52,0.26-13.95,23-15.24,25.32c-0.78,1.29-3.36,0.52-5.43-1.55
			c-2.33-2.07-3.36-4.91-2.58-6.2L1104.48,364.78z"/>
		<path d="M1196.98,387.78c1.03,2.58,0.26,4.13-1.81,3.62s-4.65-2.84-5.68-5.17c-5.17-4.91-17.83,1.03-22.48,4.91
			c-9.56,7.75-14.99,17.05-17.83,28.94c9.04-2.58,32.56-29.97,32.56-29.97c1.03-1.03,3.36-0.26,5.68,2.07
			c1.81,2.07,2.84,4.39,2.07,5.68c-0.52,1.29-3.62,8.01-2.07,15.24c1.03,6.2,34.62-21.96,35.14-22.22c1.03-1.03,3.1-2.33,5.17-0.26
			c2.07,2.33,1.81,4.39,0.78,5.43c-17.05,15.24-27.13,24.29-34.11,27.9c-11.88,6.2-20.93,2.58-20.67-10.08
			c-9.3,8.78-18.86,16.79-24.55,14.21c-2.07-0.77-3.62-2.33-5.17-3.88c-2.58-3.36-3.62-6.98-3.1-10.85c0.26-3.1,1.29-6.46,2.84-9.82
			c3.36-7.23,9.3-15.24,16.02-20.67C1171.4,373.31,1192.59,372.79,1196.98,387.78z"/>
	</g>
</g>
<g id="Camada_2">
	<g>
		<g>
			<path d="M166.22,471.78c-5.41,4.96-12.11,7.89-19.45,8.35c1.49,3.61,2.99,7.21,4.48,10.82c3.05-3.42,4.52-6.52,2.66-10.9
				c0,1.46,0,2.91,0,4.37c11.28-15.52,20.61-32.66,30.72-48.96c10.33-16.66,20.93-33.16,31.44-49.71
				c10.51-16.55,21.02-33.11,31.52-49.66c5.34-8.42,10.71-16.82,16.07-25.23c5.36-8.4,11.19-16.58,15.27-25.69
				c1.5-3.34-2.73-7.61-5.55-4.28c-6.24,7.38-10.99,15.77-16.06,23.96c-5.25,8.47-10.49,16.95-15.76,25.41
				c-10.54,16.92-21.07,33.84-31.61,50.77c-10.54,16.92-20.98,33.91-31.69,50.72c-10.32,16.2-20.09,33.08-31.83,48.3
				c1.63-0.66,3.26-1.33,4.89-1.99c-4.01-0.61-6.53,0.73-9.04,3.93c-2.95,3.77-1.63,11.42,4.48,10.82
				c10.63-1.04,20.11-5.2,27.76-12.72C179.95,474.75,171.78,466.68,166.22,471.78L166.22,471.78z"/>
		</g>
	</g>
	<g>
		<g>
			<path d="M114.31,317.73c41.17-8.84,83.93-12.22,126.01-11.5c42.58,0.73,85.09,2.83,127.69,1.45c23.7-0.77,48.03-1.66,71.41-5.91
				c7.37-1.34,5.77-13.91-1.79-13.2c-21.32,2-42.45,4.47-63.87,5.35c-21.42,0.88-42.87,1.05-64.3,1.3
				c-42.13,0.51-84.41,1.16-126.44,4.29c-23.85,1.78-47.61,4.86-71,9.86C106.57,310.54,108.87,318.9,114.31,317.73L114.31,317.73z"
				/>
		</g>
	</g>
	<g>
		<g>
			<path d="M454.8,389.14c-3.75-13.39-18.99-11.02-28.54-6.06c-12.06,6.26-24.24,15.14-30.63,27.45c-2.82,5.45-5.35,12.44-1.88,18.2
				c3,4.99,9.53,6.59,14.91,5.1c6.41-1.78,10.64-7.48,14.74-12.3c2.88-3.39,5.76-6.78,8.64-10.17c2.89-3.4,5.7-7.99,9.3-10.61
				c-1.78-2.31-3.57-4.62-5.35-6.94c-7.44,7.33-9.93,21.39-3.05,29.82c3.11,3.82,7.67,5.77,12.59,5.37
				c5.7-0.47,10.3-4.63,14.56-8.11c9.81-8.02,19.17-16.56,27.87-25.78c4.46-4.72,8.75-9.59,12.87-14.6
				c3.68-4.47,7.08-10.68,11.85-13.97c5.1-3.52-0.9-10.95-5.11-6.63c-12.34,12.65-13.93,29.86-17.66,46.27
				c-1.61,7.07-3.77,19.02-11.07,22.56c-1.55,0.75-3.24,1.06-4.88,0.29c-2.96-1.39-2.1-4.87-1.41-7.42
				c1.57-5.76,3.2-11.22,4.41-17.07c0.39-1.88-2.35-3.32-3.28-1.38c-3.05,6.32-5.67,12.45-7.94,19.11
				c-1.55,4.53-1.47,9.13,2.16,12.65c8.14,7.88,19.31,2.1,24.39-6c11.96-19.07,6.79-45.28,21.25-63.05c-2.35-1.37-4.7-2.74-7.05-4.1
				c-1.47,4.33-5.25,7.79-8.23,11.18c-3.11,3.54-6.3,7.01-9.56,10.41c-6.53,6.81-13.38,13.31-20.49,19.5
				c-3.56,3.1-7.18,6.13-10.89,9.05c-3.39,2.66-7.86,6.89-12.56,6.66c-10.21-0.49-2.09-15.85-1.39-20.46
				c0.69-4.57-5.5-8.19-8.07-3.4c-2.57,4.78-7.44,8.87-11.05,12.89c-3.51,3.92-6.97,7.9-10.54,11.76c-2.2,2.38-6.67,7.51-10.48,5.59
				c-4.13-2.09,0.14-9.68,1.78-12.52c4.35-7.53,11.23-13.62,17.84-19.14c3.91-3.27,8.21-7.17,13.27-8.48
				c4.89-1.27,10.92,0.84,12.06,6.15C449.09,395.26,456,393.43,454.8,389.14L454.8,389.14z"/>
		</g>
	</g>
	<g>
		<g>
			<path d="M446.07,358.89c2.36-3.79,4.73-7.59,7.09-11.38c1.69-2.71,4.32-5.85,3.51-9.17c-0.14-0.58-0.75-0.85-1.3-0.74
				c-3.28,0.69-5.1,4.62-6.78,7.24c-2.41,3.76-4.83,7.53-7.24,11.29C439.44,359.1,444.2,361.88,446.07,358.89L446.07,358.89z"/>
		</g>
	</g>
	<g>
		<g>
			<path d="M551.09,358.67c20.52-19.25,47.32-31.77,73.14-42.29c25.99-10.58,53.49-18.22,81.7-18.69
				c13.73-0.23,27.49,1.16,40.73,4.89c12.67,3.57,26.53,8.81,36.41,17.8c19.04,17.33,17,46.5,6.32,67.73
				c-5.96,11.84-14.16,22.24-23.18,31.89c-9.23,9.89-18.92,20.29-30.47,27.47c-11.96,7.44-25.89,11.57-39.25,15.68
				c-13.89,4.27-28.63,7.37-43.14,4.65c-11.3-2.11-22.24-7.23-28.95-16.93c-7.66-11.07-6.83-25.45-4.3-38.07
				c5.09-25.4,19.72-47.96,38.96-65.02c22.63-20.06,51.48-33.38,80.6-40.87c33.14-8.52,66.24-5.92,99.47,0.6
				c5.74,1.13,8.21-7.63,2.43-8.81c-31.92-6.57-64.02-9.62-96.18-2.79c-29.21,6.2-58.43,18.41-82.22,36.62
				c-22.28,17.06-39.91,39.88-47.49,67.17c-3.65,13.12-5.31,28.08-2.27,41.48c2.67,11.78,10.87,21.24,20.99,27.46
				c25.79,15.87,57.38,7.17,83.86-2.3c14.42-5.16,27.03-12.2,38.35-22.58c10.86-9.96,20.93-21.12,29.5-33.12
				c15.23-21.33,24.46-49.07,15.06-74.79c-9.95-27.23-38.26-39.84-64.95-45.02c-30.56-5.93-61.78-1.91-91.22,7.46
				c-14.77,4.7-29.13,10.66-43.17,17.21c-13.9,6.49-27.67,13.47-40.28,22.24c-6.11,4.25-11.92,8.92-17.35,14.02
				C539.6,356.08,546.51,362.97,551.09,358.67L551.09,358.67z"/>
		</g>
	</g>
	<g>
		<g>
			<path d="M826.52,375.2c29.61-14.59,54.79-37.24,72.48-65.11c4.31-6.79,8.27-14.1,11.23-21.59c2.49-6.31,3.58-13.53-3.44-17.21
				c-6.6-3.46-14.82,0.89-20.62,4.16c-7.33,4.13-13.71,10.49-19.19,16.78c-12.25,14.07-22.54,30.06-32.76,45.62
				c-10.98,16.71-21.25,33.92-31.13,51.31c-9.11,16.03-20.38,33.23-22.49,51.94c-0.75,6.66-0.34,15.45,5.68,19.77
				c7.28,5.22,15.12-2.28,21.13-6.17c18.07-11.71,36.78-22.61,54.29-35.15c15.02-10.75,26.58-23.22,35.95-39.14
				c3.62-6.15-7.15-10.67-8.92-3.76c-3.47,13.52-14.82,23.89-25.48,32.21c-12.13,9.47-25.53,17.37-38.48,25.65
				c-7.34,4.7-14.66,9.44-22.05,14.08c-1.93,1.21-9.18,7.21-11.51,6c-2.3-1.2-1.55-8.16-1.46-10.01c0.79-16,11.03-31.14,18.44-44.83
				c16-29.57,33.82-58.23,53.03-85.81c8.69-12.48,18.16-23.64,30.11-33.09c2.92-2.31,7.5-5.98,11.52-5.48
				c6.87,0.85,1.17,8.3-0.47,11.53c-3.06,6.01-6.44,11.82-10.04,17.52c-17.08,27.04-41.53,49.13-70.1,63.46
				C817.32,370.31,821.63,377.62,826.52,375.2L826.52,375.2z"/>
		</g>
	</g>
	<g>
		<g>
			<path d="M912.45,357.12c-0.23-0.4-0.24-0.39-0.03,0.04c-0.11-0.46-0.1-0.43,0,0.08c0.02-0.47,0.01-0.45-0.03,0.07
				c0.12-0.38,0.13-0.43,0.02-0.16c-0.13,0.27-0.1,0.23,0.09-0.13c-0.32,0.36-0.32,0.37-0.01,0.03c-0.41,0.27-0.42,0.29-0.03,0.04
				c-0.48,0.18-0.49,0.2-0.04,0.07c-1.56-2.03-3.12-4.06-4.68-6.09c0.19-0.25-0.27,0.13-0.27,0.14c-0.26,0.14-0.25,0.15,0.01,0.04
				c-0.51,0.11-0.57,0.15-0.16,0.12c1.37,1.79,2.73,3.59,4.1,5.38c0.28-1-0.28,0.44,0-0.06c0.26-0.46-0.41,0.64,0.05-0.03
				c-0.25,0.37-0.44,0.31,0.06-0.01c0.3-0.19,0.82-0.23,0.03-0.07c0.2-0.04,0.45-0.11,0.65-0.18c-0.77,0.29-0.38,0,0.02,0.06
				c0.48,0.07-0.77,0.1,0,0.03c-0.14-0.06-0.27-0.12-0.41-0.18c0.2,0.1,0.39,0.22,0.56,0.36c-0.7-1.22-1.4-2.44-2.1-3.66
				c0.11-0.5,0.1-0.5-0.02-0.01c0.19-0.41,0.17-0.41-0.06,0.02c0.25-0.3,0.42-0.51,0.81-0.65c1.3,0.13,1.62,0.1,0.98-0.07
				c0.34,0.11,0.63,0.29,0.88,0.54c0.27,0.4,0.34,0.49,0.19,0.25c-0.13-0.23-0.1-0.14,0.11,0.27c-0.12-0.35-0.27-0.7-0.45-1.02
				c-0.26-0.46-0.2-0.18,0.18,0.84c0.06-0.4-0.17-1.04-0.39-1.39c-0.67-1.12-2-1.49-3.22-1.19c-2.54,0.63-3.44,3.39-2.92,5.72
				c0.61,2.71,2.98,4.41,5.73,4.22c2.98-0.21,5.43-2.5,6.29-5.3c0.55-1.8,0.54-3.82-0.88-5.23c-0.88-0.88-2.17-1.53-3.34-1.84
				c-4.61-1.23-9.87,1.56-10.96,6.31c-0.77,3.37,2.02,5.78,5.23,5.23c2.74-0.47,4.93-2.22,6.45-4.46c2.05-3.03-1.34-7.08-4.68-6.09
				c-4.87,1.44-7.58,7.56-4.65,11.96c1.19,1.79,3.52,2.56,5.45,1.43C912.86,361.49,913.57,358.97,912.45,357.12L912.45,357.12z"/>
		</g>
	</g>
	<g>
		<g>
			<path d="M872.78,404.62c-1.73,6.33-7.24,18.19,1.58,21.77c6.9,2.8,15.77-2.3,21.7-5.47c7.83-4.19,14.83-9.57,21.5-15.4
				c3.52-3.08,7.08-6.19,10.34-9.55c1.62-1.68,3.17-3.43,4.67-5.22c0.87-1.04,3.04-4.87,4-5.16c4.5-1.37,5.48-7.63,1.32-10.07
				c-4.44-2.59-8.87,1.67-8.09,6.22c0.06,0.35,0.12,0.7,0.18,1.06c0.15-1.15,0.3-2.3,0.45-3.45c-6.31,12.54-15.53,22.83-27.22,30.56
				c-5.42,3.58-11.21,6.71-17.17,9.3c-2.14,0.93-6.78,3.29-9.1,2.02c-3.92-2.14,0.32-12.31,1.05-15.17
				C878.83,402.69,873.69,401.27,872.78,404.62L872.78,404.62z"/>
		</g>
	</g>
	<g>
		<g>
			<path d="M925.85,387.96c-8.06,7.99-15.14,17.64-19.22,28.3c-1.63,4.24-2,9.37,1.57,12.79c3.29,3.15,8.21,3.31,12.2,1.59
				c4.96-2.14,9.49-6.23,13.75-9.51c4.67-3.6,9.12-7.42,13.53-11.33c9.49-8.41,18.35-17.24,26.35-27.09
				c4.02-4.95-3.19-10.61-6.97-5.38c-10.59,14.65-22.96,27.74-37.54,38.46c-3.23,2.37-6.65,5.28-10.38,6.85
				c-2.49,1.05-5.6,2.08-5.14-1.98c0.21-1.89,1.58-3.9,2.44-5.57c4.03-7.85,9.3-14.8,15.62-20.93
				C936.08,390.22,929.86,383.99,925.85,387.96L925.85,387.96z"/>
		</g>
	</g>
	<g>
		<g>
			<path d="M962.04,387.74c-3.44,3.09-7.14,6.64-6.74,11.62c0.32,3.92,3.04,6.91,6.87,7.58c5.61,0.98,12.51-2.48,17.74-4.01
				c6.21-1.82,12.47-3.51,18.62-5.53c9.07-2.99,19.1-6.47,25.13-14.31c4.93-6.41,7.84-17.51,0.4-23.4
				c-3.98-3.15-8.9-2.45-12.97,0.12c-4.59,2.91-8.73,7.54-12.73,11.21c-8.45,7.75-16.65,16.14-22.97,25.75
				c-5.85,8.9-10.05,21.15-0.67,29.34c9.08,7.93,22.47,4.06,32.41,0.19c24.19-9.43,46.35-27.71,62.77-47.65
				c4.24-5.15-2.8-12.54-7.46-7.46c-11.14,12.14-21.71,24.29-35.35,33.77c-6.73,4.68-13.9,8.82-21.49,11.95
				c-7.08,2.91-16.88,7.08-24.17,2.8c-9-5.28-1.59-17.35,2.24-23.69c4.38-7.27,9.4-13.72,15.75-19.39
				c2.76-2.46,16.92-14.06,19.52-7.77c2.46,5.95-5.54,13.16-9.7,15.97c-7.13,4.82-15.41,6.88-23.56,9.27
				c-5.05,1.48-10.11,2.96-15.16,4.44c-2.23,0.65-6.23,2.66-7.86,0.72c-2.26-2.7,1.14-5.78,3.15-7.75
				C968.26,389.09,964.57,385.46,962.04,387.74L962.04,387.74z"/>
		</g>
	</g>
	<g>
		<g>
			<path d="M1057.27,383.04c-4.67,5.44-9.65,10.53-13.91,16.33c-3.64,4.97-7.88,10.34-8.8,16.61c-0.71,4.82,1.02,10.17,5.18,12.99
				c5.23,3.55,10.57,0.93,15.33-2.02c11.38-7.05,24.05-13.48,34.28-22.17c10.03-8.52,11.61-21.47,18.18-32.21
				c2.73-4.47-4.48-8.67-7.01-4.1c-4.32,7.81-5.79,16.92-10.55,24.47c-5.66,8.98-16.54,13.4-25.48,18.35
				c-4.67,2.59-9.32,5.22-14,7.8c-1.68,0.93-4.06,2.88-5.81,1.47c-1.92-1.55-0.65-4.99,0.11-6.77c1.99-4.71,5.02-9.09,7.61-13.49
				c2.85-4.83,5.59-9.66,8.99-14.11C1063.18,383.86,1059.2,380.79,1057.27,383.04L1057.27,383.04z"/>
		</g>
	</g>
	<g>
		<g>
			<path d="M1071.83,427.54c5.21-9.27,14.14-17.04,22.56-23.35c8.99-6.73,17.74-10.51,28.99-10.98c-1.48-1.13-2.96-2.26-4.44-3.38
				c1.74,11.38,17.36,10.13,25.76,10.86c4.69,0.41,4.58-6.77,0-7.27c-3.09-0.33-17.33,0.01-16.71-4.82
				c0.23-1.79-1.58-4.17-3.38-4.44c-12.36-1.87-24.66,4.16-34.32,11.37c-10.31,7.7-18.71,17-24.26,28.62
				C1064.19,428,1069.68,431.36,1071.83,427.54L1071.83,427.54z"/>
		</g>
	</g>
	<g>
		<g>
			<path d="M1079.77,359.26c0.27-1.11,0.74-1.99,1.65-2.71c0.35-0.27,0.77-0.47,1.16-0.68c0.24-0.07,0.49-0.14,0.73-0.2
				c-0.46-0.07-0.38-0.04,0.25,0.09c-0.77-1.89-1.53-3.77-2.3-5.66c-0.82,1.35-1.7,2.7-2.84,3.8c-0.49,0.47-0.98,0.84-1.55,1.19
				c-0.2,0.12-0.75,0.5-0.72,0.41c0.06-0.05,0.13-0.07,0.21-0.05c0.65-0.04,1.25,0.17,1.82,0.61c0.39,0.67,0.78,1.34,1.17,2.01
				c0.01,0.03-0.07,0.55-0.18,0.58c-0.25,0.06,0.72-0.91,0.6-0.78c-0.28,0.3,0.47-0.55,0.29-0.15c-0.06-0.01-0.11-0.01-0.17-0.02
				c0.94,0.04,0.74-0.04-0.59-0.23c-0.56-0.56-1.12-1.12-1.68-1.68c1.17-3.2,1.18-4.28,0.02-3.25c0.67-0.39,1.35-0.79,2.02-1.18
				c0.18,0.04,0.35,0.08,0.53,0.12c0.61,0.16,0.39,0.05-0.67-0.34c-0.8-0.22-1.57-0.07-2.38,0.03c-1.18,0.16-2.13,1.39-2.44,2.44
				c-1.04,3.52,2.4,6.69,5.77,6.77c3.3,0.08,6.12-2.8,6.16-6.06c0.1-7.74-10.14-6.91-13.93-2.75c-1.94,2.13-3.14,5.37-2.4,8.24
				c0.86,3.35,4.05,5.08,7.37,4.46c5.08-0.95,9.58-6.36,10.63-11.22c0.65-3.03-1.8-5.27-4.74-4.74c-4.94,0.89-9.31,3.98-10.42,9.1
				C1072.2,361.73,1078.72,363.58,1079.77,359.26L1079.77,359.26z"/>
		</g>
	</g>
	<g>
		<g>
			<path d="M1194.23,387.74c1.71-4.48-0.58-9.12-4.48-11.67c-5.33-3.48-11.71-1.49-17.14,0.55c-7.07,2.66-13.37,6.18-19.38,10.82
				c-5.65,4.36-11.34,8.97-14.6,15.49c-6.24,12.46,2.3,29.53,17.69,24.23c13.09-4.5,24.4-16.21,31.22-27.89
				c2.8-4.8-4.12-8.51-7.27-4.25c-4.37,5.9-6.81,14.82-5.19,22.13c1.96,8.83,10.4,8.54,16.86,4.78c9.13-5.3,16.89-12.54,25.49-18.59
				c7.98-5.62,17.5-10.56,23.81-18.14c0.66-0.79,0.06-2.15-1.06-1.83c-13.13,3.75-24.18,14.01-36.2,20.27
				c-2.92,1.52-5.89,2.83-8.72,4.52c-3.15,1.88-6.19,4.59-9.5,6.12c-3.03,1.4-3.05-1.45-2.95-4.31c0.12-3.59,1.88-7.1,4.08-9.85
				c-2.21-1.7-4.41-3.4-6.62-5.1c-4.67,7.33-10.8,13.68-18.15,18.35c-2.77,1.76-9.23,6.29-12.18,3.21c-2.1-2.19-0.64-6.36,0.44-8.58
				c3.62-7.4,9.92-14.12,16.22-19.31c3.43-2.83,7.36-6.11,11.41-7.95c4.52-2.04,15.18-2.07,12.22,5.9
				C1189.3,389.15,1193.29,390.21,1194.23,387.74L1194.23,387.74z"/>
		</g>
	</g>
	<g>
		<g>
			<path d="M276.5,383.72c-7.37,4.04-12.2,10.7-15.4,18.34c-3.15,7.52-6.05,17.07-5.62,25.32c0.44,8.48,8.07,13.32,16.08,10.9
				c8.44-2.55,15-12.86,19.45-19.89c5.35-8.46,9.1-18.79,9.78-28.79c0.53-7.73-0.38-19.88-8.76-23.48
				c-7.53-3.23-11.21,4.73-11.66,10.87c-0.57,7.77,2.88,15.79,8.81,20.83c17.81,15.11,38.94-2.7,49.17-17.79
				c-2.68-1.57-5.36-3.14-8.05-4.7c-9.48,15.3-18.22,30.82-28.43,45.69c-3.52,5.13,4.16,10.63,8.42,6.49
				c8.21-7.98,16.38-15.98,24.85-23.68c4-3.64,8.05-7.21,12.11-10.78c2.58-2.27,9.29-10.28,13.09-9.08
				c-1.25-1.65-2.51-3.29-3.76-4.94c-0.26,11.53-1.86,26.83-9.34,36.2c-3.87,4.85,2.31,11.52,6.98,6.98
				c6.68-6.52,12.65-17.5,23.74-13.05c-1.24-2.19-2.49-4.38-3.73-6.57c-3.13,8.01-4.46,16.06-3.87,24.64
				c0.18,2.54,3.03,4.82,5.48,3.15c6.18-4.23,12.8-7.86,19.24-11.68c3.33-1.98,0.37-7.05-3.04-5.19
				c-6.58,3.59-13.08,7.42-19.88,10.59c1.83,1.05,3.66,2.1,5.48,3.15c0.39-7.29,2.51-14.32,6.34-20.52
				c1.49-2.41,0.57-5.93-1.92-7.31c-14.09-7.79-29.52,4.14-35.6,16.83c3.01,1.27,6.01,2.53,9.02,3.8
				c1.22-6.73,4.12-13.12,6.05-19.69c1.93-6.57,3.72-13.24,5.1-19.95c0.44-2.16-0.27-4.68-2.35-5.78
				c-5.2-2.75-10.13-1.51-14.73,1.82c-5.64,4.08-10.79,9.08-15.95,13.74c-10.59,9.59-21.04,19.42-30.9,29.76
				c2.81,2.16,5.61,4.33,8.42,6.49c9.07-15.38,18.9-30.6,27.22-46.39c2.79-5.29-4.96-9.88-8.05-4.7
				c-7.03,11.77-22.72,28.99-37.11,16.64c-2.54-2.18-4.55-5.01-5.73-8.15c-0.83-2.19-2.59-9.61,0.02-11.34
				c3.95-2.63,4.51,8.17,4.53,9.56c0.06,4.4-0.38,8.72-1.3,13.02c-1.78,8.34-5.5,16.16-9.64,23.57c-2.12,3.79-4.49,8.14-7.87,10.96
				c-3.61,3.01-10.07,4.03-10.8-2.19c-0.77-6.51,2.2-15.38,4.31-21.44c2.43-6.98,6.35-13.19,12.87-16.95
				C282.97,387.02,279.94,381.83,276.5,383.72L276.5,383.72z"/>
		</g>
	</g>
	<g>
		<g>
			<path d="M216.52,536.38c23.92-13.04,50.74-19.03,77.64-21.98c27.8-3.05,55.9-3.94,83.84-4.57c59.89-1.36,119.8,0.75,179.46,6.05
				c58.77,5.22,117.32,12.89,176.22,16.62c29.94,1.9,59.98,2.76,89.97,1.72c28.41-0.98,56.58-4.07,84.68-8.32
				c55.8-8.43,112.23-20.69,168.96-15.7c13.6,1.2,27.09,3.48,40.28,7.03c6.34,1.71,33.96,8.68,21.01,19.55
				c-4.43,3.72-10.69,4.89-16.14,6.19c-7.34,1.75-14.76,3.22-22.21,4.45c-13.96,2.32-28.07,3.67-42.2,4.47
				c-28.92,1.64-57.92,0.94-86.86,0.61c-30.22-0.34-60.44-0.56-90.67-0.66c-60.11-0.19-120.23,0.11-180.33,0.9
				c-59.59,0.78-119.28,1.41-178.82,4.1c-28.83,1.31-57.64,3.43-86.25,7.3c-28.09,3.8-56.41,8.8-83.16,18.4
				c-12.2,4.38-24.02,9.74-35.2,16.31c-3.76,2.21-1.97,7.72,2.15,7.93c37.54,1.91,75.16-0.7,112-8.17c5.42-1.1,3.12-9.36-2.28-8.29
				c-36.11,7.17-72.94,9.97-109.72,7.95c0.72,2.64,1.43,5.28,2.15,7.93c24.71-14.39,52.37-22.25,80.27-27.76
				c29.37-5.8,59.17-9.17,89.02-11.31c60.83-4.35,122.01-4.76,182.96-5.82c61.76-1.08,123.54-1.64,185.31-1.68
				c31.22-0.02,62.44,0.09,93.66,0.33c29.57,0.23,59.18,1.01,88.74,0.13c29.21-0.87,58.74-3.48,87.02-11.16
				c8.37-2.27,19.93-6.73,20.52-16.96c0.6-10.47-10.21-15.38-18.56-18.13c-54.21-17.81-112.34-11.73-167.66-3.28
				c-29.38,4.49-58.65,9.84-88.19,13.22c-29.72,3.4-59.66,4.51-89.56,4.06c-60.93-0.9-121.51-8.05-182.06-14.28
				c-60.87-6.26-121.79-10.6-183.01-10.79c-30.79-0.1-61.59,0.67-92.33,2.39c-26.24,1.47-52.73,3.91-78.06,11.28
				c-12.38,3.6-24.36,8.45-35.65,14.69C210.01,533.02,213.08,538.26,216.52,536.38L216.52,536.38z"/>
		</g>
	</g>
</g>
</svg>
