<?xml version="1.0" encoding="UTF-8"?>
<svg id="Camada_2" data-name="Camada 2" xmlns="http://www.w3.org/2000/svg" viewBox="0 0 1136.15 337.59">
  <defs>
    <style>
      .cls-1 {
        fill: #1d1d1b;
      }
    </style>
  </defs>
  <path class="cls-1" d="M60.86,201.98c-5.41,4.96-12.11,7.89-19.45,8.35l4.48,10.82c3.05-3.42,4.52-6.52,2.66-10.9v4.37c11.28-15.52,20.61-32.66,30.72-48.96s20.93-33.16,31.44-49.71c10.51-16.55,21.02-33.11,31.52-49.66,5.34-8.42,10.71-16.82,16.07-25.23s11.19-16.58,15.27-25.69c1.5-3.34-2.73-7.61-5.55-4.28-6.24,7.38-10.99,15.77-16.06,23.96s-10.49,16.95-15.76,25.41c-10.54,16.92-21.07,33.84-31.61,50.77s-20.98,33.91-31.69,50.72c-10.32,16.2-20.09,33.08-31.83,48.3l4.89-1.99c-4.01-.61-6.53,.73-9.04,3.93-2.95,3.77-1.63,11.42,4.48,10.82,10.63-1.04,20.11-5.2,27.76-12.72,5.42-5.33-2.75-13.4-8.31-8.31h0Z"/>
  <path class="cls-1" d="M8.96,47.94c41.17-8.84,83.93-12.22,126.01-11.5,42.58,.73,85.09,2.83,127.69,1.45,23.7-.77,48.03-1.66,71.41-5.91,7.37-1.34,5.77-13.91-1.79-13.2-21.32,2-42.45,4.47-63.87,5.35s-42.87,1.05-64.3,1.3c-42.13,.51-84.41,1.16-126.44,4.29-23.85,1.78-47.61,4.86-71,9.86-5.44,1.16-3.14,9.52,2.3,8.35h0Z"/>
  <path class="cls-1" d="M349.44,119.35c-3.75-13.39-18.99-11.02-28.54-6.06-12.06,6.26-24.24,15.14-30.63,27.45-2.82,5.45-5.35,12.44-1.88,18.2,3,5,9.53,6.59,14.91,5.1,6.41-1.78,10.64-7.48,14.74-12.3,2.88-3.39,5.76-6.78,8.64-10.17s5.7-7.99,9.3-10.61c-1.78-2.31-3.57-4.62-5.35-6.94-7.44,7.33-9.93,21.39-3.05,29.82,3.11,3.82,7.67,5.77,12.59,5.37,5.7-.47,10.3-4.63,14.56-8.11,9.81-8.02,19.17-16.56,27.87-25.78,4.46-4.72,8.75-9.59,12.87-14.6,3.68-4.47,7.08-10.68,11.85-13.97,5.1-3.52-.9-10.95-5.11-6.63-12.34,12.65-13.93,29.86-17.66,46.27-1.61,7.07-3.77,19.02-11.07,22.56-1.55,.75-3.24,1.06-4.88,.29-2.96-1.39-2.1-4.87-1.41-7.42,1.57-5.76,3.2-11.22,4.41-17.07,.39-1.88-2.35-3.32-3.28-1.38-3.05,6.32-5.67,12.45-7.94,19.11-1.55,4.53-1.47,9.13,2.16,12.65,8.14,7.88,19.31,2.1,24.39-6,11.96-19.07,6.79-45.28,21.25-63.05l-7.05-4.1c-1.47,4.33-5.25,7.79-8.23,11.18s-6.3,7.01-9.56,10.41c-6.53,6.81-13.38,13.31-20.49,19.5-3.56,3.1-7.18,6.13-10.89,9.05-3.39,2.66-7.86,6.89-12.56,6.66-10.21-.49-2.09-15.85-1.39-20.46s-5.5-8.19-8.07-3.4-7.44,8.87-11.05,12.89-6.97,7.9-10.54,11.76c-2.2,2.38-6.67,7.51-10.48,5.59-4.13-2.09,.14-9.68,1.78-12.52,4.35-7.53,11.23-13.62,17.84-19.14,3.91-3.27,8.21-7.17,13.27-8.48s10.92,.84,12.06,6.15c.92,4.3,7.83,2.47,6.63-1.83h0Z"/>
  <path class="cls-1" d="M340.71,89.1l7.09-11.38c1.69-2.71,4.32-5.85,3.51-9.17-.14-.58-.75-.85-1.3-.74-3.28,.69-5.1,4.62-6.78,7.24l-7.24,11.29c-1.9,2.97,2.86,5.75,4.72,2.76h0Z"/>
  <path class="cls-1" d="M445.73,88.88c20.52-19.25,47.32-31.77,73.14-42.29s53.49-18.22,81.7-18.69c13.73-.23,27.49,1.16,40.73,4.89,12.67,3.57,26.53,8.81,36.41,17.8,19.04,17.33,17,46.5,6.32,67.73-5.96,11.84-14.16,22.24-23.18,31.89-9.23,9.89-18.92,20.29-30.47,27.47-11.96,7.44-25.89,11.57-39.25,15.68-13.89,4.27-28.63,7.37-43.14,4.65-11.3-2.11-22.24-7.23-28.95-16.93-7.66-11.07-6.83-25.45-4.3-38.07,5.09-25.4,19.72-47.96,38.96-65.02,22.63-20.06,51.48-33.38,80.6-40.87,33.14-8.52,66.24-5.92,99.47,.6,5.74,1.13,8.21-7.63,2.43-8.81-31.92-6.57-64.02-9.62-96.18-2.79-29.21,6.2-58.43,18.41-82.21,36.62-22.28,17.06-39.91,39.88-47.49,67.17-3.65,13.12-5.31,28.08-2.27,41.48,2.67,11.78,10.87,21.24,20.99,27.46,25.79,15.87,57.38,7.17,83.86-2.3,14.42-5.16,27.03-12.2,38.35-22.58,10.86-9.96,20.93-21.12,29.5-33.12,15.23-21.33,24.46-49.07,15.06-74.79-9.95-27.23-38.26-39.84-64.95-45.02-30.56-5.93-61.78-1.91-91.22,7.46-14.77,4.7-29.13,10.66-43.17,17.21s-27.67,13.47-40.28,22.24c-6.11,4.25-11.92,8.92-17.35,14.02-4.59,4.32,2.32,11.2,6.91,6.91h0Z"/>
  <path class="cls-1" d="M721.17,105.41c29.61-14.59,54.79-37.24,72.48-65.11,4.31-6.79,8.27-14.1,11.23-21.59,2.49-6.31,3.58-13.53-3.44-17.21-6.6-3.46-14.82,.89-20.62,4.16-7.33,4.13-13.71,10.49-19.19,16.78-12.25,14.07-22.54,30.06-32.76,45.62-10.98,16.71-21.25,33.92-31.13,51.31-9.11,16.03-20.38,33.23-22.49,51.94-.75,6.66-.34,15.45,5.68,19.77,7.28,5.22,15.12-2.28,21.13-6.17,18.07-11.71,36.78-22.61,54.29-35.15,15.02-10.75,26.58-23.22,35.95-39.14,3.62-6.15-7.15-10.67-8.92-3.76-3.47,13.52-14.82,23.89-25.48,32.21-12.13,9.47-25.53,17.37-38.48,25.65-7.34,4.7-14.66,9.44-22.05,14.08-1.93,1.21-9.18,7.21-11.51,6s-1.55-8.16-1.46-10.01c.79-16,11.03-31.14,18.44-44.83,16-29.57,33.82-58.23,53.03-85.81,8.69-12.48,18.16-23.64,30.11-33.09,2.92-2.31,7.5-5.98,11.52-5.48,6.87,.85,1.17,8.3-.47,11.53-3.06,6.01-6.44,11.82-10.04,17.52-17.08,27.04-41.53,49.13-70.1,63.46-4.91,2.46-.6,9.77,4.3,7.35h0Z"/>
  <path class="cls-1" d="M807.09,87.33c-.23-.4-.24-.39-.03,.04-.11-.46-.1-.43,0,.08,.02-.47,.01-.45-.03,.07,.12-.38,.13-.43,.02-.16-.13,.27-.1,.23,.09-.13-.32,.36-.32,.37-.01,.03-.41,.27-.42,.29-.03,.04-.48,.18-.49,.2-.04,.07l-4.68-6.09c.19-.25-.27,.13-.27,.14-.26,.14-.25,.15,0,.04-.51,.11-.57,.15-.16,.12l4.1,5.38c.28-1-.28,.44,0-.06,.26-.46-.41,.64,.05-.03-.25,.37-.44,.31,.06-.01,.3-.19,.82-.23,.03-.07,.2-.04,.45-.11,.65-.18-.77,.29-.38,0,.02,.06,.48,.07-.77,.1,0,.03l-.41-.18c.2,.1,.39,.22,.56,.36l-2.1-3.66c.11-.5,.1-.5-.02,0,.19-.41,.17-.41-.06,.02,.25-.3,.42-.52,.81-.65,1.3,.13,1.62,.1,.98-.07,.34,.11,.63,.29,.88,.54,.27,.4,.34,.49,.19,.25-.13-.23-.1-.14,.11,.27-.12-.35-.27-.7-.45-1.02-.26-.46-.2-.18,.18,.84,.06-.4-.17-1.04-.39-1.39-.67-1.12-2-1.49-3.22-1.19-2.54,.63-3.44,3.39-2.92,5.72,.61,2.71,2.98,4.41,5.73,4.22,2.98-.21,5.43-2.5,6.29-5.3,.55-1.8,.54-3.82-.88-5.23-.88-.88-2.17-1.53-3.34-1.84-4.61-1.23-9.87,1.56-10.96,6.31-.77,3.37,2.02,5.78,5.23,5.23,2.74-.47,4.93-2.22,6.45-4.46,2.05-3.03-1.34-7.08-4.68-6.09-4.87,1.44-7.58,7.56-4.65,11.96,1.19,1.79,3.52,2.56,5.45,1.43s2.55-3.6,1.43-5.45h0Z"/>
  <path class="cls-1" d="M767.42,134.83c-1.73,6.33-7.24,18.19,1.58,21.77,6.9,2.8,15.77-2.3,21.7-5.47,7.83-4.19,14.83-9.57,21.5-15.4,3.52-3.08,7.08-6.19,10.34-9.55,1.62-1.68,3.17-3.43,4.67-5.22,.87-1.04,3.04-4.87,4-5.16,4.5-1.37,5.48-7.63,1.32-10.07-4.44-2.59-8.87,1.67-8.09,6.22l.18,1.06,.45-3.45c-6.31,12.54-15.53,22.83-27.22,30.56-5.42,3.58-11.21,6.71-17.17,9.3-2.14,.93-6.78,3.29-9.1,2.02-3.92-2.13,.32-12.31,1.05-15.17,.86-3.36-4.28-4.78-5.2-1.43h0Z"/>
  <path class="cls-1" d="M820.49,118.17c-8.06,7.99-15.14,17.64-19.22,28.3-1.63,4.24-2,9.37,1.57,12.79,3.29,3.15,8.21,3.31,12.2,1.59,4.96-2.14,9.49-6.23,13.75-9.51,4.67-3.6,9.12-7.42,13.53-11.33,9.49-8.41,18.35-17.24,26.35-27.09,4.01-4.95-3.19-10.61-6.97-5.38-10.59,14.65-22.96,27.74-37.54,38.46-3.23,2.37-6.65,5.28-10.38,6.85-2.49,1.05-5.6,2.08-5.14-1.98,.21-1.89,1.58-3.9,2.44-5.57,4.03-7.85,9.3-14.8,15.62-20.93,4.05-3.93-2.18-10.16-6.19-6.19h0Z"/>
  <path class="cls-1" d="M856.68,117.95c-3.44,3.09-7.14,6.64-6.74,11.62,.32,3.92,3.04,6.91,6.87,7.58,5.61,.98,12.51-2.48,17.74-4.01,6.21-1.82,12.47-3.51,18.62-5.53,9.07-2.99,19.1-6.47,25.13-14.31,4.93-6.41,7.84-17.51,.4-23.4-3.98-3.15-8.9-2.45-12.97,.12-4.59,2.91-8.73,7.54-12.73,11.21-8.45,7.75-16.65,16.14-22.97,25.75-5.85,8.9-10.05,21.15-.67,29.34s22.47,4.06,32.41,.19c24.19-9.43,46.35-27.71,62.77-47.65,4.24-5.15-2.8-12.54-7.46-7.46-11.14,12.14-21.71,24.29-35.35,33.77-6.73,4.68-13.9,8.82-21.49,11.95-7.08,2.91-16.88,7.08-24.17,2.8-9-5.28-1.59-17.35,2.24-23.69,4.38-7.27,9.4-13.72,15.75-19.39,2.76-2.46,16.92-14.06,19.52-7.77,2.46,5.95-5.54,13.16-9.7,15.97-7.13,4.82-15.41,6.88-23.56,9.27-5.05,1.48-10.11,2.96-15.16,4.44-2.23,.65-6.23,2.66-7.86,.72-2.26-2.7,1.14-5.78,3.15-7.75,2.46-2.4-1.23-6.03-3.76-3.76h0Z"/>
  <path class="cls-1" d="M951.92,113.25c-4.67,5.44-9.65,10.53-13.91,16.33-3.64,4.97-7.88,10.34-8.8,16.61-.71,4.82,1.02,10.17,5.18,12.99,5.23,3.55,10.57,.93,15.33-2.02,11.38-7.05,24.05-13.48,34.28-22.17s11.61-21.47,18.18-32.21c2.73-4.47-4.48-8.67-7.01-4.1-4.32,7.81-5.79,16.92-10.55,24.47-5.66,8.98-16.54,13.4-25.48,18.35-4.67,2.59-9.32,5.22-14,7.8-1.68,.93-4.06,2.88-5.81,1.47-1.92-1.55-.65-4.99,.11-6.77,1.99-4.71,5.02-9.09,7.61-13.49,2.85-4.83,5.59-9.66,8.99-14.11,1.79-2.35-2.18-5.42-4.11-3.17h0Z"/>
  <path class="cls-1" d="M966.47,157.75c5.21-9.27,14.14-17.04,22.56-23.35,8.99-6.73,17.74-10.51,28.99-10.98l-4.44-3.38c1.74,11.38,17.36,10.13,25.76,10.86,4.69,.41,4.58-6.77,0-7.27-3.09-.33-17.33,0-16.71-4.81,.23-1.79-1.58-4.17-3.38-4.44-12.36-1.87-24.66,4.16-34.32,11.37-10.31,7.7-18.71,17-24.26,28.62-1.84,3.85,3.66,7.21,5.8,3.39h0Z"/>
  <path class="cls-1" d="M974.41,89.47c.27-1.11,.74-1.99,1.65-2.71,.35-.27,.77-.47,1.16-.68,.24-.07,.49-.14,.73-.2-.46-.07-.38-.04,.25,.09l-2.3-5.66c-.82,1.35-1.7,2.7-2.84,3.8-.49,.47-.98,.84-1.55,1.19-.2,.12-.75,.5-.72,.41,.06-.05,.13-.07,.21-.05,.65-.04,1.25,.17,1.82,.61l1.17,2.01s-.07,.55-.18,.58c-.25,.06,.72-.91,.6-.78-.28,.3,.47-.55,.29-.15l-.17-.02c.94,.04,.74-.04-.59-.23l-1.68-1.68c1.17-3.2,1.18-4.28,.02-3.25l2.02-1.18c.18,.04,.35,.08,.53,.12,.61,.16,.39,.05-.67-.34-.8-.22-1.57-.07-2.38,.03-1.18,.16-2.13,1.39-2.44,2.44-1.04,3.52,2.4,6.69,5.77,6.77s6.12-2.8,6.16-6.06c.1-7.74-10.14-6.91-13.93-2.75-1.94,2.13-3.14,5.37-2.4,8.24,.86,3.35,4.05,5.08,7.37,4.46,5.08-.95,9.58-6.36,10.63-11.22,.65-3.03-1.8-5.27-4.74-4.74-4.94,.89-9.31,3.98-10.42,9.1-.94,4.3,5.58,6.15,6.63,1.83h0Z"/>
  <path class="cls-1" d="M1088.87,117.95c1.71-4.48-.58-9.12-4.48-11.67-5.33-3.48-11.71-1.49-17.14,.55-7.07,2.66-13.37,6.18-19.38,10.82-5.65,4.36-11.34,8.97-14.61,15.49-6.24,12.46,2.3,29.53,17.69,24.23,13.09-4.5,24.4-16.21,31.22-27.89,2.8-4.8-4.12-8.51-7.27-4.25-4.37,5.9-6.81,14.82-5.19,22.13,1.96,8.83,10.4,8.54,16.86,4.78,9.13-5.3,16.89-12.54,25.49-18.59,7.98-5.62,17.5-10.56,23.81-18.14,.66-.79,.06-2.15-1.06-1.83-13.13,3.75-24.18,14.01-36.2,20.27-2.92,1.52-5.89,2.83-8.72,4.52-3.15,1.88-6.19,4.59-9.5,6.12-3.03,1.4-3.05-1.45-2.95-4.31,.12-3.59,1.88-7.1,4.08-9.85l-6.62-5.1c-4.67,7.33-10.8,13.68-18.15,18.35-2.77,1.76-9.23,6.29-12.18,3.21-2.1-2.19-.64-6.36,.44-8.58,3.62-7.4,9.92-14.12,16.22-19.31,3.43-2.83,7.36-6.11,11.41-7.95,4.52-2.04,15.18-2.07,12.22,5.9-.93,2.51,3.05,3.57,3.99,1.1h0Z"/>
  <path class="cls-1" d="M171.14,113.93c-7.37,4.04-12.2,10.7-15.4,18.34s-6.05,17.07-5.62,25.32,8.07,13.32,16.08,10.9c8.44-2.55,15-12.86,19.45-19.89,5.35-8.46,9.1-18.79,9.78-28.79,.53-7.73-.38-19.88-8.76-23.48-7.53-3.23-11.21,4.73-11.66,10.87-.57,7.77,2.88,15.79,8.81,20.83,17.81,15.11,38.94-2.7,49.17-17.79l-8.05-4.7c-9.48,15.3-18.22,30.82-28.43,45.69-3.52,5.13,4.16,10.63,8.42,6.49,8.21-7.98,16.38-15.98,24.85-23.68,4-3.64,8.05-7.21,12.11-10.78,2.58-2.27,9.29-10.28,13.09-9.08l-3.76-4.94c-.26,11.53-1.86,26.83-9.34,36.2-3.87,4.85,2.31,11.52,6.98,6.98,6.68-6.52,12.65-17.5,23.74-13.05l-3.73-6.57c-3.13,8.01-4.46,16.06-3.87,24.64,.18,2.54,3.03,4.82,5.48,3.15,6.18-4.23,12.8-7.86,19.24-11.68,3.33-1.98,.37-7.05-3.04-5.19-6.58,3.59-13.08,7.42-19.88,10.59l5.48,3.15c.39-7.29,2.51-14.32,6.34-20.52,1.49-2.41,.57-5.93-1.92-7.31-14.09-7.79-29.52,4.14-35.6,16.83l9.02,3.8c1.22-6.73,4.12-13.12,6.05-19.69,1.93-6.57,3.72-13.24,5.1-19.95,.44-2.16-.27-4.68-2.35-5.78-5.2-2.75-10.13-1.51-14.73,1.82-5.64,4.08-10.79,9.08-15.95,13.74-10.59,9.59-21.04,19.42-30.9,29.76l8.42,6.49c9.07-15.38,18.9-30.6,27.22-46.39,2.79-5.29-4.96-9.88-8.05-4.7-7.03,11.77-22.72,28.99-37.11,16.64-2.54-2.18-4.55-5.01-5.73-8.15-.83-2.19-2.59-9.61,.02-11.34,3.95-2.63,4.51,8.17,4.53,9.56,.06,4.4-.38,8.72-1.3,13.02-1.78,8.34-5.5,16.16-9.64,23.57-2.12,3.79-4.49,8.14-7.87,10.96-3.61,3.01-10.07,4.03-10.8-2.19s2.2-15.38,4.31-21.44c2.43-6.98,6.35-13.19,12.87-16.95,3.4-1.96,.37-7.15-3.08-5.26h0Z"/>
  <path class="cls-1" d="M111.17,266.59c23.92-13.04,50.74-19.03,77.64-21.98s55.9-3.94,83.84-4.57c59.89-1.36,119.8,.75,179.46,6.05,58.77,5.22,117.32,12.89,176.22,16.62,29.94,1.9,59.98,2.76,89.97,1.72,28.41-.98,56.58-4.07,84.68-8.32,55.8-8.43,112.23-20.69,168.96-15.7,13.6,1.2,27.09,3.48,40.28,7.03,6.34,1.71,33.96,8.68,21.01,19.55-4.43,3.72-10.69,4.89-16.14,6.19-7.34,1.75-14.76,3.22-22.21,4.45-13.96,2.32-28.07,3.67-42.2,4.47-28.92,1.64-57.92,.94-86.86,.61-30.22-.34-60.44-.56-90.67-.66-60.11-.19-120.23,.11-180.33,.9-59.59,.78-119.28,1.41-178.82,4.1-28.83,1.31-57.64,3.43-86.25,7.3-28.09,3.8-56.41,8.8-83.16,18.4-12.2,4.38-24.02,9.74-35.2,16.31-3.76,2.21-1.97,7.72,2.15,7.93,37.54,1.91,75.16-.7,112-8.17,5.42-1.1,3.12-9.36-2.28-8.29-36.11,7.17-72.94,9.97-109.72,7.95l2.15,7.93c24.71-14.39,52.37-22.25,80.27-27.76,29.37-5.8,59.17-9.17,89.02-11.31,60.83-4.35,122.01-4.76,182.96-5.82,61.76-1.08,123.54-1.64,185.31-1.68,31.22-.02,62.44,.09,93.66,.33,29.57,.23,59.18,1.01,88.75,.13s58.74-3.48,87.02-11.16c8.37-2.27,19.93-6.73,20.52-16.96,.6-10.47-10.21-15.38-18.56-18.13-54.21-17.81-112.34-11.73-167.66-3.28-29.38,4.49-58.65,9.84-88.19,13.22-29.72,3.4-59.66,4.51-89.56,4.06-60.93-.9-121.51-8.05-182.06-14.28-60.87-6.26-121.79-10.6-183.01-10.79-30.79-.1-61.59,.67-92.33,2.39-26.24,1.47-52.73,3.91-78.06,11.28-12.38,3.6-24.36,8.45-35.65,14.69-3.44,1.9-.37,7.14,3.08,5.26h0Z"/>
</svg>