<?xml version="1.0" encoding="UTF-8"?>
<svg id="Camada_1" data-name="Camada 1" xmlns="http://www.w3.org/2000/svg" viewBox="0 0 376.9 376.9">
  <path d="M7.33,376.9c-6.32-4.61-6.9-6.44-4.68-14.21,10.85-37.92,21.63-75.87,32.61-113.75,.84-2.9,2.54-5.89,4.66-8.04,56.66-57.39,113.43-114.67,170.18-171.96,6.03-6.09,10.07-6.07,16.17,.03,9.25,9.24,18.5,18.48,27.73,27.74,5.52,5.54,5.56,9.93,.07,15.42-53.03,53.07-106.07,106.13-159.11,159.19-6.43,6.43-12.35,5.43-16.48-2.7-1.87-3.68-2.93-8.74-5.95-10.61-3.04-1.87-8.04-.58-12.19-.63-3.17-.04-6.33,0-9.7,0-3.49,12.2-6.82,24.28-10.45,36.27-.99,3.29-.62,5.39,1.98,7.91,11.92,11.57,23.63,23.37,35.26,35.24,2.02,2.06,3.69,2.33,6.36,1.52,11.3-3.41,22.68-6.6,34.06-9.74,2.2-.61,3.19-1.43,3.1-3.9-.21-5.49-.18-11,0-16.49,.07-2.2-.78-3.25-2.67-4.11-3.33-1.5-6.58-3.2-9.81-4.9-6.63-3.48-7.67-9.62-2.43-14.95,7.88-8.01,15.87-15.92,23.82-23.88,45.08-45.12,90.16-90.24,135.25-135.36,6.64-6.65,10.47-6.68,17.01-.13,9.07,9.07,18.15,18.14,27.21,27.23,5.74,5.76,5.8,10,.14,15.62-57.41,56.98-114.82,113.97-172.33,170.86-2.06,2.04-4.94,3.69-7.74,4.5-37.65,10.91-75.35,21.63-113.03,32.43-1.11,.32-2.14,.93-3.2,1.4H7.33Z"/>
  <path d="M376.9,91.66c-2.17,10.83-8.96,18.6-16.7,25.9-7.9,7.46-15.45,15.29-23.19,22.92-5.56,5.48-9.85,5.44-15.42-.13-27.98-27.98-55.95-55.97-83.9-83.98-5.41-5.42-5.46-9.74-.11-15.13,10.5-10.56,20.58-21.62,31.73-31.45,13.91-12.27,33.75-11.12,47.04,1.96,16.8,16.53,33.34,33.33,50.04,49.96,5.53,5.51,8.49,12.32,10.51,19.67v10.27Z"/>
</svg>